<svg data-v-6805eed4="" version="1.0" xmlns="http://www.w3.org/2000/svg" xmlns:xlink="http://www.w3.org/1999/xlink"
    width="350" height="100" viewBox="80 125 180 1" preserveAspectRatio="xMidYMid meet"
    color-interpolation-filters="sRGB" style="margin: auto;">
    <g data-v-6805eed4="" fill="#333333" class="iconlettersvg-g iconlettersvg"
        transform="translate(91.25282287597656,101.94748497009277)">
        <g fill="#333333">
            <g class="tp-name" transform="translate(0,0)" fill="#333333">
                <g transform="scale(1)" fill="#333333">
                    <g transform="translate(0, 0)" fill="#333333">
                        <g class="name-imagesvg" fill="#333333">
                            <g fill="#333333">
                                <rect fill="#333333" fill-opacity="0" stroke-width="2px" x="0" y="0"
                                    width="30.659627316030594" height="31.948881789137385" class="image-rect"></rect>
                                <svg x="0" y="0" width="30.659627316030594" height="31.948881789137385"
                                    filtersec="colorsb5684456612" class="image-svg-svg primary"
                                    style="overflow: visible;" fill="#333333"><svg xmlns="http://www.w3.org/2000/svg"
                                        viewBox="0 0 256.13 266.89" fill="#333333">
                                        <g fill="#FDAB02">
                                            <path d="M151.49 101.74l-44.3 165.15h44.3V101.74z" fill="#FDAB02"></path>
                                            <path
                                                d="M189.75 0H55.6A66.31 66.31 0 0 0 0 30.14h36.59l43.55 153.94 43.07-153.94h80.27v235.32a66.38 66.38 0 0 0 52.64-64.94V66.37A66.36 66.36 0 0 0 189.75 0zM8.49 101.81v145.45a66.13 66.13 0 0 0 44.11 19.56z"
                                                fill="#FDAB02"></path>
                                        </g>
                                    </svg></svg>
                                <!---->
                            </g>
                        </g>
                    </g>
                    <g transform="translate(30.659627316030594, 0)" fill="#333333">
                        <g class="name-imagesvg" fill="#333333">
                            <g fill="#333333">
                                <rect fill="#333333" fill-opacity="0" stroke-width="2px" x="0" y="0"
                                    width="31.73147198593163" height="31.948881789137385" class="image-rect"></rect>
                                <svg x="0" y="0" width="31.73147198593163" height="31.948881789137385"
                                    filtersec="colorsb5528956581" class="image-svg-svg primary"
                                    style="overflow: visible;" fill="#333333"><svg xmlns="http://www.w3.org/2000/svg"
                                        viewBox="0 0 559.04 562.83" fill="#333333">
                                        <g fill="#A966FD">
                                            <path
                                                d="M119.95 347.38h138.78l-68.7-159.95-70.08 159.95zm174.17 104.87H83l-.24.56-2.48 5.7c-2.1 4.87-5 11.69-8.43 19.55-6.75 15.72-15.2 35.55-22 52-4.53 11-8.32 20.46-10.36 26.17l-.28.77a66.05 66.05 0 0 0 27.16 5.81h271.06z"
                                                fill="#A966FD"></path>
                                            <path
                                                d="M492.67 0H66.37A66.36 66.36 0 0 0 0 66.37v286.05C54.44 221.47 129.23 64 129.24 63.94l.67-1.43h117.8l210 500.32h34.92A66.36 66.36 0 0 0 559 496.46V66.37A66.36 66.36 0 0 0 492.67 0z"
                                                fill="#A966FD"></path>
                                        </g>
                                    </svg></svg>
                                <!---->
                            </g>
                        </g>
                    </g>
                    <g transform="translate(62.39109930196223, 0)" fill="#333333">
                        <g class="name-imagesvg" fill="#333333">
                            <g fill="#333333">
                                <rect fill="#333333" fill-opacity="0" stroke-width="2px" x="0" y="0"
                                    width="31.950080038607716" height="31.948881789137385" class="image-rect"></rect>
                                <svg x="0" y="0" width="31.950080038607716" height="31.948881789137385"
                                    filtersec="colorsb8372887082" class="image-svg-svg primary"
                                    style="overflow: visible;" fill="#333333"><svg xmlns="http://www.w3.org/2000/svg"
                                        viewBox="0 0 266.9 266.89" fill="#333333">
                                        <g fill="#0AB584">
                                            <path d="M37.14 109.69H0v90.83a66.35 66.35 0 0 0 37.14 59.59z"
                                                fill="#0AB584"></path>
                                            <path
                                                d="M200.52 0H66.37a66.39 66.39 0 0 0-62.6 44.31h163.12v65.38H92.72v157.2h107.8a66.37 66.37 0 0 0 66.38-66.37V66.37A66.37 66.37 0 0 0 200.52 0z"
                                                fill="#0AB584"></path>
                                        </g>
                                    </svg></svg>
                                <!---->
                            </g>
                        </g>
                    </g>
                    <g transform="translate(94.34117934056994, 0)" fill="#333333">
                        <g class="name-imagesvg" fill="#333333">
                            <g fill="#333333">
                                <rect fill="#333333" fill-opacity="0" stroke-width="2px" x="0" y="0"
                                    width="31.948885442885125" height="31.948881789137385" class="image-rect"></rect>
                                <svg x="0" y="0" width="31.948885442885125" height="31.948881789137385"
                                    filtersec="colorsb4944570920" class="image-svg-svg primary"
                                    style="overflow: visible;" fill="#333333"><svg xmlns="http://www.w3.org/2000/svg"
                                        viewBox="0 0 266.89 266.89" fill="#333333">
                                        <path
                                            d="M200.52 0H66.37A66.36 66.36 0 0 0 0 66.37V88a134.39 134.39 0 0 1 226.21 15l1.21 2.2-54.74 29.8-1.2-2.18a72.06 72.06 0 1 0-1.1 71.27l1.29-2.2 53 32.84-1.28 2.12a135 135 0 0 1-24.71 30h1.8a66.36 66.36 0 0 0 66.37-66.37V66.37A66.36 66.36 0 0 0 200.52 0z"
                                            fill="#06B8F9"></path>
                                    </svg></svg>
                                <!---->
                            </g>
                        </g>
                    </g>
                    <g transform="translate(126.29006478345507, 0)" fill="#333333">
                        <g class="name-imagesvg" fill="#333333">
                            <g fill="#333333">
                                <rect fill="#333333" fill-opacity="0" stroke-width="2px" x="0" y="0"
                                    width="31.20429760531057" height="31.948881789137385" class="image-rect"></rect>
                                <svg x="0" y="0" width="31.20429760531057" height="31.948881789137385"
                                    filtersec="colorsb6373399425" class="image-svg-svg primary"
                                    style="overflow: visible;" fill="#333333"><svg xmlns="http://www.w3.org/2000/svg"
                                        viewBox="0 0 260.68 266.89" fill="#333333">
                                        <g fill="#FE5508">
                                            <path d="M129.43 197.33H49.31V266a66.84 66.84 0 0 0 10.85.89h69.27z"
                                                fill="#FE5508"></path>
                                            <path
                                                d="M194.31 0H60.16A66.38 66.38 0 0 0 0 38.34h49.31V137h80.12V38.34H189v228.55h5.3a66.36 66.36 0 0 0 66.37-66.37V66.37A66.37 66.37 0 0 0 194.31 0z"
                                                fill="#FE5508"></path>
                                        </g>
                                    </svg></svg>
                                <!---->
                            </g>
                        </g>
                    </g>
                </g>
            </g>
        </g>
        <g data-gra="path-slogan" fill-rule="" class="tp-slogan" fill="#333333"
            transform="translate(54.83717727661133,37.94902992248535)">
            <!---->
            <!---->
            <g transform="scale(1, 1)" fill="#333333">
                <g transform="scale(1)" fill="#333333">
                    <path
                        d="M1.08-7.87L1.08 0L2.00 0L2.00-4.33C2.00-4.68 1.99-5.07 1.96-5.50C1.92-5.92 1.90-6.31 1.87-6.66L1.92-6.66L2.54-4.91L4.07-0.79L4.63-0.79L6.14-4.91L6.78-6.66L6.83-6.66C6.80-6.31 6.77-5.92 6.74-5.50C6.71-5.07 6.70-4.68 6.70-4.33L6.70 0L7.64 0L7.64-7.87L6.47-7.87L4.96-3.65L4.40-2.04L4.36-2.04L3.78-3.65L2.26-7.87ZM13.15-3.20L10.79-3.20L11.16-4.40C11.30-4.84 11.44-5.28 11.57-5.72C11.70-6.15 11.82-6.60 11.94-7.06L11.99-7.06C12.12-6.60 12.24-6.15 12.37-5.72C12.50-5.28 12.64-4.84 12.78-4.40ZM13.40-2.40L14.15 0L15.22 0L12.55-7.87L11.42-7.87L8.76 0L9.78 0L10.54-2.40ZM16.33-7.87L16.33 0L18.35 0C18.94 0 19.46-0.09 19.92-0.27C20.38-0.45 20.76-0.71 21.07-1.05C21.38-1.39 21.62-1.81 21.78-2.30C21.94-2.79 22.02-3.35 22.02-3.97C22.02-5.23 21.70-6.19 21.07-6.86C20.44-7.54 19.52-7.87 18.30-7.87ZM18.23-0.82L17.33-0.82L17.33-7.06L18.23-7.06C19.15-7.06 19.84-6.79 20.30-6.26C20.76-5.74 20.99-4.97 20.99-3.97C20.99-2.97 20.76-2.20 20.30-1.64C19.84-1.09 19.15-0.82 18.23-0.82ZM23.71-7.87L23.71 0L24.66 0L24.66-4.12C24.66-4.53 24.65-4.95 24.62-5.36C24.59-5.77 24.56-6.18 24.53-6.58L24.58-6.58L25.43-4.96L28.28 0L29.32 0L29.32-7.87L28.37-7.87L28.37-3.80C28.37-3.39 28.38-2.97 28.41-2.54C28.44-2.11 28.46-1.70 28.49-1.30L28.44-1.30L27.59-2.93L24.74-7.87ZM31.48-7.87L31.48 0L36.13 0L36.13-0.85L32.47-0.85L32.47-3.71L35.46-3.71L35.46-4.56L32.47-4.56L32.47-7.03L36.01-7.03L36.01-7.87ZM37.82-1.72L37.22-1.02C37.57-0.66 37.98-0.38 38.45-0.17C38.92 0.04 39.43 0.14 39.98 0.14C40.40 0.14 40.77 0.09 41.10-0.03C41.43-0.15 41.71-0.31 41.94-0.51C42.17-0.71 42.35-0.95 42.47-1.22C42.60-1.50 42.66-1.79 42.66-2.10C42.66-2.39 42.62-2.64 42.53-2.86C42.45-3.08 42.34-3.27 42.19-3.44C42.05-3.60 41.88-3.75 41.68-3.87C41.48-3.99 41.26-4.10 41.04-4.20L39.92-4.68C39.76-4.74 39.61-4.81 39.46-4.89C39.30-4.97 39.16-5.05 39.04-5.15C38.91-5.25 38.81-5.37 38.73-5.50C38.65-5.63 38.62-5.80 38.62-5.99C38.62-6.35 38.75-6.63 39.02-6.83C39.29-7.04 39.64-7.14 40.08-7.14C40.45-7.14 40.78-7.07 41.07-6.94C41.36-6.81 41.63-6.63 41.87-6.40L42.41-7.04C42.13-7.33 41.79-7.57 41.39-7.75C40.99-7.93 40.55-8.02 40.08-8.02C39.72-8.02 39.39-7.96 39.09-7.86C38.79-7.76 38.53-7.61 38.31-7.42C38.09-7.23 37.92-7.01 37.79-6.76C37.67-6.50 37.61-6.22 37.61-5.93C37.61-5.64 37.66-5.39 37.75-5.17C37.85-4.95 37.97-4.76 38.12-4.60C38.28-4.44 38.45-4.30 38.64-4.19C38.83-4.08 39.02-3.98 39.20-3.90L40.33-3.41C40.52-3.32 40.69-3.24 40.85-3.16C41.01-3.08 41.15-2.99 41.26-2.89C41.38-2.79 41.47-2.67 41.54-2.53C41.61-2.39 41.64-2.22 41.64-2.02C41.64-1.63 41.50-1.32 41.21-1.09C40.92-0.85 40.52-0.73 40.00-0.73C39.59-0.73 39.19-0.82 38.81-1.00C38.43-1.18 38.10-1.42 37.82-1.72ZM44.06-1.72L43.46-1.02C43.81-0.66 44.22-0.38 44.69-0.17C45.16 0.04 45.67 0.14 46.22 0.14C46.64 0.14 47.01 0.09 47.34-0.03C47.67-0.15 47.95-0.31 48.18-0.51C48.41-0.71 48.59-0.95 48.71-1.22C48.84-1.50 48.90-1.79 48.90-2.10C48.90-2.39 48.86-2.64 48.77-2.86C48.69-3.08 48.58-3.27 48.43-3.44C48.29-3.60 48.12-3.75 47.92-3.87C47.72-3.99 47.50-4.10 47.28-4.20L46.16-4.68C46.00-4.74 45.85-4.81 45.70-4.89C45.54-4.97 45.40-5.05 45.28-5.15C45.15-5.25 45.05-5.37 44.97-5.50C44.89-5.63 44.86-5.80 44.86-5.99C44.86-6.35 44.99-6.63 45.26-6.83C45.53-7.04 45.88-7.14 46.32-7.14C46.69-7.14 47.02-7.07 47.31-6.94C47.60-6.81 47.87-6.63 48.11-6.40L48.65-7.04C48.37-7.33 48.03-7.57 47.63-7.75C47.23-7.93 46.79-8.02 46.32-8.02C45.96-8.02 45.63-7.96 45.33-7.86C45.03-7.76 44.77-7.61 44.55-7.42C44.33-7.23 44.16-7.01 44.03-6.76C43.91-6.50 43.85-6.22 43.85-5.93C43.85-5.64 43.90-5.39 43.99-5.17C44.09-4.95 44.21-4.76 44.36-4.60C44.52-4.44 44.69-4.30 44.88-4.19C45.07-4.08 45.26-3.98 45.44-3.90L46.57-3.41C46.76-3.32 46.93-3.24 47.09-3.16C47.25-3.08 47.39-2.99 47.50-2.89C47.62-2.79 47.71-2.67 47.78-2.53C47.85-2.39 47.88-2.22 47.88-2.02C47.88-1.63 47.74-1.32 47.45-1.09C47.16-0.85 46.76-0.73 46.24-0.73C45.83-0.73 45.43-0.82 45.05-1.00C44.67-1.18 44.34-1.42 44.06-1.72Z"
                        transform="translate(-1.08, 8.016)" fill="#333333"></path>
                </g>
            </g>
        </g>
    </g>
    <defs v-gra="od"></defs>
</svg>
